#!OML:ASF I:\Actors\actors\Patient Classification 2\Patient 1\Session 1\actor1.ASF
:FULLY-SPECIFIED
:DEGREES
497
root -0.648624 18.706 5.25375 0.947946 -0.6568 -1.69547
lowerback 6.59713 2.86232 0.240465
upperback 1.26208 3.82008 -0.162363
thorax -2.36328 1.9005 -0.625725
lowerneck -7.48489 -9.48684 -9.05731
upperneck 33.8308 -15.1445 8.91598
head 14.2745 -6.71728 2.882
rclavicle 1.25483e-014 1.86858e-014
rhumerus -23.2747 27.5257 -82.7598
rradius 80.8261
rwrist -37.0696
rhand 0.778873 -51.8466
rfingers 7.12502
rthumb 26.3362 -80.038
lclavicle 1.25483e-014 1.86858e-014
lhumerus -41.8073 -15.0673 92.1381
lradius 92.0544
lwrist -1.91491
lhand -22.5536 -46.3947
lfingers 7.12502
lthumb 3.87415 -16.4502
rfemur 0 0 0
rtibia 0
rfoot 0 0
rtoes 0
lfemur -5.7586 -4.19671 -12.4268
ltibia 22.9291
lfoot -22.0171 15.4451
ltoes -55.5785
498
root -0.656127 18.7053 5.25784 1.00406 -0.939287 -1.67455
lowerback 6.45927 2.88845 0.184212
upperback 1.26445 3.85057 -0.17664
thorax -2.28647 1.91652 -0.603758
lowerneck -7.27696 -9.54575 -9.32689
upperneck 33.6333 -15.2233 9.06768
head 14.1917 -6.78149 2.98034
rclavicle 8.89561e-015 1.74931e-014
rhumerus -23.6869 26.8604 -81.2334
rradius 80.8524
rwrist -37.0552
rhand -1.93078 -50.1065
rfingers 7.12502
rthumb 23.7398 -78.6602
lclavicle 8.89561e-015 1.74931e-014
lhumerus -42.2439 -15.6377 92.5143
lradius 92.6537
lwrist -1.84265
lhand -22.0757 -45.8627
lfingers 7.12502
lthumb 4.3357 -15.9271
rfemur 0 0 0
rtibia 0
rfoot 0 0
rtoes 0
lfemur -5.70228 -4.06428 -12.4502
ltibia 22.8749
lfoot -22.0918 15.5553
ltoes -55.5792
499
root -0.663901 18.7067 5.25965 1.15229 -1.3617 -1.65663
lowerback 6.22041 2.95331 0.0924269
upperback 1.26535 3.93103 -0.172153
thorax -2.15825 1.95792 -0.540952
lowerneck -7.14812 -9.66791 -9.3399
upperneck 33.4192 -15.2665 8.72695
head 14.0348 -6.85289 2.84
rclavicle -1.70955e-014 1.2921e-014
rhumerus -23.8651 26.2667 -79.6226
rradius 80.7414
rwrist -37.0301
rhand -3.68271 -48.8491
rfingers 7.12502
rthumb 22.0586 -77.611
lclavicle -1.70955e-014 1.2921e-014
lhumerus -42.5768 -16.1097 92.8691
lradius 93.2312
lwrist -1.8474
lhand -21.7248 -45.4972
lfingers 7.12502
lthumb 4.67453 -15.5688
rfemur 0 0 0
rtibia 0
rfoot 0 0
rtoes 0
lfemur -5.71833 -3.84611 -12.4753
ltibia 22.8086
lfoot -22.1746 15.7542
ltoes -55.5874
500
root -0.665893 18.7063 5.26613 1.03296 -1.16433 -1.64753
lowerback 6.20352 2.81052 0.192251
upperback 1.35552 3.74721 -0.181891
thorax -2.05046 1.86641 -0.587899
lowerneck -7.03666 -9.86436 -8.86632
upperneck 33.0683 -15.2962 7.80751
head 13.7084 -6.92987 2.39577
rclavicle -1.68967e-014 -1.13307e-014
rhumerus -23.8812 25.515 -77.9579
rradius 80.5739
rwrist -37.5591
rhand -3.13526 -49.4191
rfingers 7.12502
rthumb 22.5842 -78.118
lclavicle -1.68967e-014 -1.13307e-014
lhumerus -42.8391 -16.5774 93.1878
lradius 93.8493
lwrist -1.84475
lhand -21.5644 -45.2229
lfingers 7.12502
lthumb 4.82939 -15.2979
rfemur 0 0 0
rtibia 0
rfoot 0 0
rtoes 0
lfemur -5.57114 -3.96934 -12.4687
ltibia 22.7515
lfoot -22.1389 15.674
ltoes -55.5726
501
root -0.668454 18.7063 5.27069 0.98566 -1.16177 -1.63326
lowerback 6.20803 2.74419 0.276564
upperback 1.36399 3.66362 -0.214128
thorax -2.03767 1.82438 -0.661265
lowerneck -6.90052 -9.96476 -9.18107
upperneck 32.9617 -15.4093 7.88063
head 13.6848 -7.01707 2.46116
rclavicle -3.09359e-014 1.25234e-014
rhumerus -24.0673 24.7525 -76.3655
rradius 80.4242
rwrist -38.1391
rhand -1.90106 -50.5265
rfingers 7.12502
rthumb 23.7683 -79.0765
lclavicle -3.09359e-014 1.25234e-014
lhumerus -43.1431 -17.103 93.4598
lradius 94.4602
lwrist -1.79429
lhand -21.5128 -44.9173
lfingers 7.12502
lthumb 4.87923 -14.9935
rfemur 0 0 0
rtibia 0
rfoot 0 0
rtoes 0
lfemur -5.4688 -3.98713 -12.4771
ltibia 22.7048
lfoot -22.1724 15.6346
ltoes -55.5207
502
root -0.671262 18.7059 5.27429 1.0105 -1.22329 -1.61031
lowerback 6.13608 2.69874 0.310646
upperback 1.34691 3.60479 -0.237628
thorax -2.01227 1.79501 -0.696471
lowerneck -6.72161 -10.0729 -9.48364
upperneck 32.8212 -15.5389 7.96
head 13.6391 -7.11164 2.52633
rclavicle -1.48592e-014 2.98177e-015
rhumerus -24.3633 24.347 -74.879
rradius 80.1238
rwrist -37.7231
rhand -1.7737 -49.8077
rfingers 7.12502
rthumb 23.8904 -78.3417
lclavicle -1.48592e-014 2.98177e-015
lhumerus -43.4326 -17.6197 93.6751
lradius 95.0376
lwrist -1.76307
lhand -21.5733 -44.6544
lfingers 7.12502
lthumb 4.82077 -14.7292
rfemur 0 0 0
rtibia 0
rfoot 0 0
rtoes 0
lfemur -5.44776 -3.98613 -12.4972
ltibia 22.6656
lfoot -22.2028 15.6721
ltoes -55.515
503
root -0.67443 18.7062 5.27916 1.04962 -1.25752 -1.58953
lowerback 6.00868 2.64931 0.323255
upperback 1.34641 3.53918 -0.261826
thorax -1.94039 1.76269 -0.716617
lowerneck -6.54529 -10.1949 -9.7035
upperneck 32.6397 -15.6719 7.95713
head 13.5596 -7.20802 2.5452
rclavicle 3.05134e-014 -1.05356e-014
rhumerus -24.6096 23.9878 -73.3787
rradius 79.7786
rwrist -37.0931
rhand -1.74224 -48.8919
rfingers 7.12502
rthumb 23.9206 -77.422
lclavicle 3.05134e-014 -1.05356e-014
lhumerus -43.6397 -18.099 93.8103
lradius 95.5741
lwrist -1.76622
lhand -21.5707 -44.3688
lfingers 7.12502
lthumb 4.82329 -14.4437
rfemur 0 0 0
rtibia 0
rfoot 0 0
rtoes 0
lfemur -5.45294 -3.97278 -12.5087
ltibia 22.628
lfoot -22.1829 15.7332
ltoes -55.5881
504
root -0.67663 18.7059 5.28372 1.08123 -1.25324 -1.56907
lowerback 5.91541 2.58775 0.365141
upperback 1.33566 3.45899 -0.298387
thorax -1.89582 1.72277 -0.766972
lowerneck -6.32968 -10.3027 -9.99887
upperneck 32.4318 -15.7935 8.02187
head 13.4747 -7.30244 2.60641
rclavicle -5.1038e-014 3.97569e-016
rhumerus -24.7227 23.1124 -71.6402
rradius 79.7415
rwrist -38.2384
rhand -0.181814 -51.496
rfingers 7.12502
rthumb 25.4162 -79.8217
lclavicle -5.1038e-014 3.97569e-016
lhumerus -43.803 -18.5363 93.8621
lradius 96.1177
lwrist -1.71565
lhand -21.3728 -44.0559
lfingers 7.12502
lthumb 5.01435 -14.1353
rfemur 0 0 0
rtibia 0
rfoot 0 0
rtoes 0
lfemur -5.45558 -3.96187 -12.5208
ltibia 22.5948
lfoot -22.1681 15.7358
ltoes -55.5791
505
root -0.677316 18.7047 5.28712 1.07012 -1.18296 -1.54696
lowerback 5.84255 2.46725 0.385605
upperback 1.35877 3.29968 -0.303756
thorax -1.83229 1.64369 -0.767993
lowerneck -6.21503 -10.3789 -10.3689
upperneck 32.2942 -15.8593 8.0918
head 13.4447 -7.37485 2.68501
rclavicle -5.2007e-014 -7.95139e-015
rhumerus -24.842 22.6064 -69.9599
rradius 79.5511
rwrist -38.4003
rhand 0.534557 -53.0416
rfingers 7.12502
rthumb 26.1023 -81.2678
lclavicle -5.2007e-014 -7.95139e-015
lhumerus -43.8665 -18.7998 93.8204
lradius 96.6754
lwrist -1.57013
lhand -21.1541 -43.649
lfingers 7.12502
lthumb 5.22556 -13.7334
rfemur 0 0 0
rtibia 0
rfoot 0 0
rtoes 0
lfemur -5.42626 -4.01706 -12.5398
ltibia 22.5638
lfoot -22.1695 15.6755
ltoes -55.4692
506
root -0.67792 18.7043 5.2909 1.03111 -1.13688 -1.52722
lowerback 5.76407 2.34871 0.386754
upperback 1.41363 3.14207 -0.29264
thorax -1.73506 1.56576 -0.740718
lowerneck -6.17531 -10.4703 -10.595
upperneck 32.155 -15.8973 7.954
head 13.3895 -7.43852 2.66046
rclavicle -3.2874e-014 -1.13307e-014
rhumerus -24.8834 22.2745 -68.3085
rradius 79.2335
rwrist -38.1147
rhand 0.940734 -54.0776
rfingers 7.12502
rthumb 26.4911 -82.2458
lclavicle -3.2874e-014 -1.13307e-014
lhumerus -43.8 -18.9494 93.7017
lradius 97.1928
lwrist -1.38858
lhand -21.0151 -43.1946
lfingers 7.12502
lthumb 5.35973 -13.2824
rfemur 0 0 0
rtibia 0
rfoot 0 0
rtoes 0
lfemur -5.3618 -4.04816 -12.5624
ltibia 22.5299
lfoot -22.1459 15.6395
ltoes -55.4788
507
root -0.680274 18.7035 5.29629 1.02211 -1.22753 -1.50827
lowerback 5.64764 2.33045 0.405636
upperback 1.46439 3.11853 -0.296393
thorax -1.61716 1.55474 -0.746604
lowerneck -6.1035 -10.6041 -10.8633
upperneck 31.9714 -16.008 7.87811
head 13.329 -7.53284 2.65589
rclavicle -2.08724e-015 -2.38542e-015
rhumerus -24.9219 21.8242 -66.6235
rradius 78.8604
rwrist -37.8713
rhand 2.25015 -55.8338
rfingers 7.12502
rthumb 27.7438 -83.8067
lclavicle -2.08724e-015 -2.38542e-015
lhumerus -43.6523 -19.1808 93.5464
lradius 97.6937
lwrist -1.22966
lhand -20.868 -42.7918
lfingers 7.12502
lthumb 5.50181 -12.8832
rfemur 0 0 0
rtibia 0
rfoot 0 0
rtoes 0
lfemur -5.29585 -3.96422 -12.58
ltibia 22.4935
lfoot -22.1467 15.6527
ltoes -55.5105
508
root -0.682958 18.7028 5.30099 1.02962 -1.31221 -1.48777
lowerback 5.51207 2.33105 0.42498
upperback 1.50753 3.11971 -0.319433
thorax -1.49498 1.55608 -0.773552
lowerneck -5.993 -10.7156 -11.186
upperneck 31.8039 -16.1352 7.96166
head 13.293 -7.62354 2.7211
rclavicle 3.5657e-014 6.36111e-015
rhumerus -25.0012 21.364 -64.9303
rradius 78.501
rwrist -37.601
rhand 2.52035 -55.716
rfingers 7.12502
rthumb 28.0021 -83.647
lclavicle 3.5657e-014 6.36111e-015
lhumerus -43.4649 -19.4869 93.2728
lradius 98.2216
lwrist -1.06203
lhand -20.7441 -42.3134
lfingers 7.12502
lthumb 5.62139 -12.4079
rfemur 0 0 0
rtibia 0
rfoot 0 0
rtoes 0
lfemur -5.25049 -3.88877 -12.5924
ltibia 22.4525
lfoot -22.1563 15.6659
ltoes -55.4644
